<svg xmlns="http://www.w3.org/2000/svg" xmlns:xlink="http://www.w3.org/1999/xlink" id="Capa_1" width="512" height="512" x="0" y="0" enable-background="new 0 0 304.049 304.049" version="1.1" viewBox="0 0 304.049 304.049" xml:space="preserve"><g><path fill="#FFF" d="M284.049,257.991h-2.874L170.182,17.672c-3.27-7.081-10.358-11.614-18.157-11.614c-7.799,0-14.887,4.533-18.157,11.614 L22.874,257.991H20c-11.046,0-20,8.954-20,20s8.954,20,20,20h46c11.046,0,20-8.954,20-20c0-10.738-8.468-19.473-19.087-19.954 l85.111-184.28l85.111,184.28c-10.619,0.481-19.087,9.216-19.087,19.954c0,11.046,8.954,20,20,20h46c11.046,0,20-8.954,20-20 S295.095,257.991,284.049,257.991z" class="active-path" data-old_color="#000000" data-original="#000000" transform="matrix(1 0 0 1 0 0)"/></g></svg>